<svg xmlns="http://www.w3.org/2000/svg" viewBox="0 0 276.8 318.91"><g id="Calque_2" data-name="Calque 2"><g id="Calque_1-2" data-name="Calque 1"><path d="M276.8,157.4V68.45H163V0H52V68.45H0v89H52v70.5c0,17,2.94,31.75,8.74,43.69A71.88,71.88,0,0,0,86.13,300.9,101.39,101.39,0,0,0,120.55,315a187.7,187.7,0,0,0,77.78-.35,111.12,111.12,0,0,0,36.42-15A78.87,78.87,0,0,0,262,269.38c6.5-12.48,9.79-27.82,9.79-45.58v-15H176.62v15c0,7.93-1.27,10.37-1.29,10.4a5.87,5.87,0,0,1-.46.72,19.67,19.67,0,0,1-6.13.87,12.11,12.11,0,0,1-4.3-.64,4.63,4.63,0,0,1-.32-.57c-.11-.24-1.11-2.51-1.11-9.27V157.4ZM137.08,247.56a30.21,30.21,0,0,0,14.42,14.67,40.57,40.57,0,0,0,17.24,3.56,49,49,0,0,0,16.44-2.7,30.26,30.26,0,0,0,16.47-14.5,36.52,36.52,0,0,0,3.55-9.79h35.51a55.67,55.67,0,0,1-5.28,16.72,48.42,48.42,0,0,1-17,18.94,81.47,81.47,0,0,1-26.63,10.92,157.77,157.77,0,0,1-65,.3,71.49,71.49,0,0,1-24.31-9.87,41.8,41.8,0,0,1-14.81-17.32C84,250.66,82,240.37,82,227.9V127.4H30V98.45H82V30h51V98.45H246.8v29H133v97.91C133,234.58,134.34,241.86,137.08,247.56Z"/></g></g></svg>